<svg width="322" height="322" viewBox="0 0 322 322" fill="none" xmlns="http://www.w3.org/2000/svg">
<path d="M158.233 178.034L143.966 163.767L304.006 4.34692L317.653 17.9937L158.233 178.034Z" fill="#555555"/>
<path d="M321.375 106.698H300.284V21.7156H215.302V0.625H321.375V106.698V106.698ZM268.028 298.375H55.261C37.8922 298.375 23.625 284.108 23.625 266.739V53.9719C23.625 36.6032 37.8922 22.3359 55.261 22.3359H172.5V43.4265H55.261C49.6782 43.4265 44.7156 48.3891 44.7156 53.9719V266.739C44.7156 272.322 49.6782 277.284 55.261 277.284H268.028C273.611 277.284 278.573 272.322 278.573 266.739V149.5H299.664V266.739C300.284 284.108 286.017 298.375 268.028 298.375" fill="#555555"/>
<path d="M73.312 219.024H70V234H63.844V219.024H61.612V213.912H63.844V213.336C63.844 210.864 64.552 208.992 65.968 207.72C67.384 206.424 69.46 205.776 72.196 205.776C72.652 205.776 72.988 205.788 73.204 205.812V211.032C72.028 210.96 71.2 211.128 70.72 211.536C70.24 211.944 70 212.676 70 213.732V213.912H73.312V219.024ZM79.3007 211.824C78.2207 211.824 77.3327 211.512 76.6367 210.888C75.9647 210.24 75.6287 209.448 75.6287 208.512C75.6287 207.552 75.9647 206.76 76.6367 206.136C77.3327 205.488 78.2207 205.164 79.3007 205.164C80.3567 205.164 81.2207 205.488 81.8927 206.136C82.5887 206.76 82.9367 207.552 82.9367 208.512C82.9367 209.448 82.5887 210.24 81.8927 210.888C81.2207 211.512 80.3567 211.824 79.3007 211.824ZM82.3607 213.912V234H76.2047V213.912H82.3607ZM92.9778 217.26C93.6978 216.156 94.5978 215.292 95.6778 214.668C96.7578 214.02 97.9578 213.696 99.2778 213.696V220.212H97.5858C96.0498 220.212 94.8978 220.548 94.1298 221.22C93.3618 221.868 92.9778 223.02 92.9778 224.676V234H86.8218V213.912H92.9778V217.26ZM110.392 234.288C108.64 234.288 107.08 233.988 105.712 233.388C104.344 232.788 103.264 231.972 102.472 230.94C101.68 229.884 101.236 228.708 101.14 227.412H107.224C107.296 228.108 107.62 228.672 108.196 229.104C108.772 229.536 109.48 229.752 110.32 229.752C111.088 229.752 111.676 229.608 112.084 229.32C112.516 229.008 112.732 228.612 112.732 228.132C112.732 227.556 112.432 227.136 111.832 226.872C111.232 226.584 110.26 226.272 108.916 225.936C107.476 225.6 106.276 225.252 105.316 224.892C104.356 224.508 103.528 223.92 102.832 223.128C102.136 222.312 101.788 221.22 101.788 219.852C101.788 218.7 102.1 217.656 102.724 216.72C103.372 215.76 104.308 215.004 105.532 214.452C106.78 213.9 108.256 213.624 109.96 213.624C112.48 213.624 114.46 214.248 115.9 215.496C117.364 216.744 118.204 218.4 118.42 220.464H112.732C112.636 219.768 112.324 219.216 111.796 218.808C111.292 218.4 110.62 218.196 109.78 218.196C109.06 218.196 108.508 218.34 108.124 218.628C107.74 218.892 107.548 219.264 107.548 219.744C107.548 220.32 107.848 220.752 108.448 221.04C109.072 221.328 110.032 221.616 111.328 221.904C112.816 222.288 114.028 222.672 114.964 223.056C115.9 223.416 116.716 224.016 117.412 224.856C118.132 225.672 118.504 226.776 118.528 228.168C118.528 229.344 118.192 230.4 117.52 231.336C116.872 232.248 115.924 232.968 114.676 233.496C113.452 234.024 112.024 234.288 110.392 234.288ZM133.491 228.78V234H130.359C128.127 234 126.387 233.46 125.139 232.38C123.891 231.276 123.267 229.488 123.267 227.016V219.024H120.819V213.912H123.267V209.016H129.423V213.912H133.455V219.024H129.423V227.088C129.423 227.688 129.567 228.12 129.855 228.384C130.143 228.648 130.623 228.78 131.295 228.78H133.491ZM139.8 234.288C138.72 234.288 137.832 233.976 137.136 233.352C136.464 232.704 136.128 231.912 136.128 230.976C136.128 230.016 136.464 229.212 137.136 228.564C137.832 227.916 138.72 227.592 139.8 227.592C140.856 227.592 141.72 227.916 142.392 228.564C143.088 229.212 143.436 230.016 143.436 230.976C143.436 231.912 143.088 232.704 142.392 233.352C141.72 233.976 140.856 234.288 139.8 234.288Z" fill="#777777"/>
<path d="M172.712 213.696C175.208 213.696 177.188 214.452 178.652 215.964C180.14 217.476 180.884 219.576 180.884 222.264V234H174.764V223.092C174.764 221.796 174.416 220.8 173.72 220.104C173.048 219.384 172.112 219.024 170.912 219.024C169.712 219.024 168.764 219.384 168.068 220.104C167.396 220.8 167.06 221.796 167.06 223.092V234H160.94V223.092C160.94 221.796 160.592 220.8 159.896 220.104C159.224 219.384 158.288 219.024 157.088 219.024C155.888 219.024 154.94 219.384 154.244 220.104C153.572 220.8 153.236 221.796 153.236 223.092V234H147.08V213.912H153.236V216.432C153.86 215.592 154.676 214.932 155.684 214.452C156.692 213.948 157.832 213.696 159.104 213.696C160.616 213.696 161.96 214.02 163.136 214.668C164.336 215.316 165.272 216.24 165.944 217.44C166.64 216.336 167.588 215.436 168.788 214.74C169.988 214.044 171.296 213.696 172.712 213.696ZM194.333 234.288C192.365 234.288 190.589 233.868 189.005 233.028C187.445 232.188 186.209 230.988 185.297 229.428C184.409 227.868 183.965 226.044 183.965 223.956C183.965 221.892 184.421 220.08 185.333 218.52C186.245 216.936 187.493 215.724 189.077 214.884C190.661 214.044 192.437 213.624 194.405 213.624C196.373 213.624 198.149 214.044 199.733 214.884C201.317 215.724 202.565 216.936 203.477 218.52C204.389 220.08 204.845 221.892 204.845 223.956C204.845 226.02 204.377 227.844 203.441 229.428C202.529 230.988 201.269 232.188 199.661 233.028C198.077 233.868 196.301 234.288 194.333 234.288ZM194.333 228.96C195.509 228.96 196.505 228.528 197.321 227.664C198.161 226.8 198.581 225.564 198.581 223.956C198.581 222.348 198.173 221.112 197.357 220.248C196.565 219.384 195.581 218.952 194.405 218.952C193.205 218.952 192.209 219.384 191.417 220.248C190.625 221.088 190.229 222.324 190.229 223.956C190.229 225.564 190.613 226.8 191.381 227.664C192.173 228.528 193.157 228.96 194.333 228.96ZM206.887 223.92C206.887 221.856 207.271 220.044 208.039 218.484C208.831 216.924 209.899 215.724 211.243 214.884C212.587 214.044 214.087 213.624 215.743 213.624C217.063 213.624 218.263 213.9 219.343 214.452C220.447 215.004 221.311 215.748 221.935 216.684V207.36H228.091V234H221.935V231.12C221.359 232.08 220.531 232.848 219.451 233.424C218.395 234 217.159 234.288 215.743 234.288C214.087 234.288 212.587 233.868 211.243 233.028C209.899 232.164 208.831 230.952 208.039 229.392C207.271 227.808 206.887 225.984 206.887 223.92ZM221.935 223.956C221.935 222.42 221.503 221.208 220.639 220.32C219.799 219.432 218.767 218.988 217.543 218.988C216.319 218.988 215.275 219.432 214.411 220.32C213.571 221.184 213.151 222.384 213.151 223.92C213.151 225.456 213.571 226.68 214.411 227.592C215.275 228.48 216.319 228.924 217.543 228.924C218.767 228.924 219.799 228.48 220.639 227.592C221.503 226.704 221.935 225.492 221.935 223.956ZM231.321 223.92C231.321 221.856 231.705 220.044 232.473 218.484C233.265 216.924 234.333 215.724 235.677 214.884C237.021 214.044 238.521 213.624 240.177 213.624C241.593 213.624 242.829 213.912 243.885 214.488C244.965 215.064 245.793 215.82 246.369 216.756V213.912H252.525V234H246.369V231.156C245.769 232.092 244.929 232.848 243.849 233.424C242.793 234 241.557 234.288 240.141 234.288C238.509 234.288 237.021 233.868 235.677 233.028C234.333 232.164 233.265 230.952 232.473 229.392C231.705 227.808 231.321 225.984 231.321 223.92ZM246.369 223.956C246.369 222.42 245.937 221.208 245.073 220.32C244.233 219.432 243.201 218.988 241.977 218.988C240.753 218.988 239.709 219.432 238.845 220.32C238.005 221.184 237.585 222.384 237.585 223.92C237.585 225.456 238.005 226.68 238.845 227.592C239.709 228.48 240.753 228.924 241.977 228.924C243.201 228.924 244.233 228.48 245.073 227.592C245.937 226.704 246.369 225.492 246.369 223.956ZM263.134 207.36V234H256.978V207.36H263.134Z" fill="#555555"/>
<circle cx="74.5" cy="78.5" r="7.5" fill="#D25959"/>
<circle cx="100.5" cy="78.5" r="7.5" fill="#F0CA44"/>
<circle cx="126.5" cy="78.5" r="7.5" fill="#6ACE59"/>
<path d="M109.352 253.648C109.648 253.256 110.032 252.936 110.504 252.688C110.976 252.44 111.488 252.316 112.04 252.316C112.824 252.316 113.452 252.552 113.924 253.024C114.404 253.496 114.644 254.136 114.644 254.944C114.644 255.176 114.62 255.424 114.572 255.688C114.452 256.352 114.208 256.944 113.84 257.464C113.48 257.984 113.036 258.388 112.508 258.676C111.988 258.964 111.436 259.108 110.852 259.108C110.284 259.108 109.808 258.984 109.424 258.736C109.04 258.488 108.772 258.172 108.62 257.788L108.404 259H107.312L108.884 250.12H109.976L109.352 253.648ZM113.456 255.688C113.488 255.52 113.504 255.336 113.504 255.136C113.504 254.552 113.332 254.096 112.988 253.768C112.644 253.432 112.2 253.264 111.656 253.264C111.256 253.264 110.868 253.364 110.492 253.564C110.116 253.756 109.792 254.04 109.52 254.416C109.256 254.784 109.08 255.212 108.992 255.7C108.96 255.868 108.944 256.052 108.944 256.252C108.944 256.836 109.116 257.3 109.46 257.644C109.812 257.98 110.256 258.148 110.792 258.148C111.2 258.148 111.588 258.052 111.956 257.86C112.332 257.66 112.652 257.376 112.916 257.008C113.188 256.632 113.368 256.192 113.456 255.688ZM117.017 252.424L118.133 257.728L121.121 252.424H122.249L116.585 262.096H115.445L117.305 258.928L115.805 252.424H117.017Z" fill="#444444"/>
<path d="M129.561 259.084C128.857 259.084 128.237 258.936 127.701 258.64C127.165 258.344 126.749 257.928 126.453 257.392C126.157 256.856 126.009 256.248 126.009 255.568C126.009 254.616 126.221 253.76 126.645 253C127.077 252.232 127.669 251.632 128.421 251.2C129.181 250.768 130.029 250.552 130.965 250.552C131.677 250.552 132.301 250.7 132.837 250.996C133.373 251.292 133.789 251.708 134.085 252.244C134.381 252.772 134.529 253.376 134.529 254.056C134.529 255.008 134.313 255.868 133.881 256.636C133.457 257.404 132.865 258.004 132.105 258.436C131.353 258.868 130.505 259.084 129.561 259.084ZM129.753 257.848C130.409 257.848 130.989 257.68 131.493 257.344C132.005 257.008 132.401 256.56 132.681 256C132.969 255.432 133.113 254.816 133.113 254.152C133.113 253.424 132.905 252.852 132.489 252.436C132.081 252.012 131.509 251.8 130.773 251.8C130.117 251.8 129.533 251.968 129.021 252.304C128.517 252.632 128.125 253.076 127.845 253.636C127.565 254.196 127.425 254.812 127.425 255.484C127.425 256.212 127.629 256.788 128.037 257.212C128.453 257.636 129.025 257.848 129.753 257.848ZM137.051 257.164C137.035 257.276 137.027 257.348 137.027 257.38C137.027 257.548 137.079 257.672 137.183 257.752C137.287 257.824 137.459 257.86 137.699 257.86H138.539L138.335 259H137.255C136.727 259 136.323 258.896 136.043 258.688C135.763 258.472 135.623 258.132 135.623 257.668C135.623 257.492 135.639 257.324 135.671 257.164L136.319 253.504H135.539L135.731 252.388H136.523L136.811 250.744H138.191L137.903 252.388H139.499L139.307 253.504H137.699L137.051 257.164ZM139.728 255.664C139.848 255 140.088 254.412 140.448 253.9C140.816 253.388 141.264 252.992 141.792 252.712C142.32 252.424 142.872 252.28 143.448 252.28C143.968 252.28 144.404 252.384 144.756 252.592C145.108 252.792 145.372 253.044 145.548 253.348L145.716 252.388H147.096L145.932 259H144.552L144.732 258.016C144.444 258.328 144.08 258.588 143.64 258.796C143.208 259.004 142.736 259.108 142.224 259.108C141.728 259.108 141.284 258.996 140.892 258.772C140.508 258.548 140.204 258.232 139.98 257.824C139.764 257.408 139.656 256.932 139.656 256.396C139.656 256.156 139.68 255.912 139.728 255.664ZM145.14 255.688C145.172 255.536 145.188 255.372 145.188 255.196C145.188 254.66 145.028 254.24 144.708 253.936C144.396 253.624 144.004 253.468 143.532 253.468C143.18 253.468 142.836 253.556 142.5 253.732C142.164 253.9 141.872 254.152 141.624 254.488C141.376 254.816 141.212 255.208 141.132 255.664C141.1 255.816 141.084 255.98 141.084 256.156C141.084 256.7 141.24 257.132 141.552 257.452C141.872 257.764 142.268 257.92 142.74 257.92C143.092 257.92 143.436 257.832 143.772 257.656C144.108 257.48 144.4 257.224 144.648 256.888C144.896 256.544 145.06 256.144 145.14 255.688ZM145.488 250.612L142.596 251.92L142.776 250.912L145.692 249.448L145.488 250.612ZM150.501 257.776L153.321 252.388H154.797L151.113 259H149.457L148.113 252.388H149.577L150.501 257.776ZM156.659 251.512C156.443 251.512 156.267 251.444 156.131 251.308C155.995 251.172 155.927 251 155.927 250.792C155.927 250.512 156.031 250.272 156.239 250.072C156.455 249.864 156.699 249.76 156.971 249.76C157.187 249.76 157.359 249.828 157.487 249.964C157.623 250.1 157.691 250.272 157.691 250.48C157.691 250.76 157.587 251.004 157.379 251.212C157.171 251.412 156.931 251.512 156.659 251.512ZM157.175 252.388L156.011 259H154.643L155.807 252.388H157.175ZM160.699 259.108C160.139 259.108 159.647 258.992 159.223 258.76C158.799 258.528 158.467 258.2 158.227 257.776C157.995 257.352 157.879 256.868 157.879 256.324C157.879 255.58 158.051 254.9 158.395 254.284C158.747 253.668 159.227 253.18 159.835 252.82C160.451 252.46 161.135 252.28 161.887 252.28C162.447 252.28 162.943 252.4 163.375 252.64C163.807 252.872 164.143 253.2 164.383 253.624C164.631 254.04 164.755 254.524 164.755 255.076C164.755 255.82 164.575 256.5 164.215 257.116C163.855 257.732 163.367 258.22 162.751 258.58C162.135 258.932 161.451 259.108 160.699 259.108ZM160.867 257.956C161.323 257.956 161.739 257.828 162.115 257.572C162.499 257.308 162.799 256.964 163.015 256.54C163.231 256.108 163.339 255.648 163.339 255.16C163.339 254.608 163.183 254.184 162.871 253.888C162.559 253.584 162.167 253.432 161.695 253.432C161.231 253.432 160.815 253.564 160.447 253.828C160.087 254.084 159.803 254.432 159.595 254.872C159.395 255.304 159.295 255.768 159.295 256.264C159.295 256.8 159.439 257.216 159.727 257.512C160.023 257.808 160.403 257.956 160.867 257.956ZM176.029 252.808C175.949 253.288 175.753 253.688 175.441 254.008C175.129 254.328 174.745 254.564 174.289 254.716C174.657 254.78 174.961 254.968 175.201 255.28C175.441 255.592 175.561 255.96 175.561 256.384C175.561 256.512 175.549 256.636 175.525 256.756C175.453 257.18 175.277 257.564 174.997 257.908C174.717 258.244 174.349 258.512 173.893 258.712C173.445 258.904 172.945 259 172.393 259H169.057L170.533 250.66H173.713C174.473 250.66 175.053 250.824 175.453 251.152C175.861 251.48 176.065 251.904 176.065 252.424C176.065 252.544 176.053 252.672 176.029 252.808ZM174.613 252.976C174.629 252.864 174.637 252.78 174.637 252.724C174.637 252.412 174.529 252.168 174.313 251.992C174.097 251.816 173.793 251.728 173.401 251.728H171.709L171.277 254.2H172.969C173.417 254.2 173.785 254.092 174.073 253.876C174.369 253.66 174.549 253.36 174.613 252.976ZM174.181 256.612C174.197 256.484 174.205 256.392 174.205 256.336C174.205 256.008 174.085 255.748 173.845 255.556C173.605 255.364 173.285 255.268 172.885 255.268H171.085L170.617 257.932H172.465C172.929 257.932 173.313 257.816 173.617 257.584C173.921 257.352 174.109 257.028 174.181 256.612ZM176.748 255.664C176.868 255 177.108 254.412 177.468 253.9C177.836 253.388 178.284 252.992 178.812 252.712C179.34 252.424 179.892 252.28 180.468 252.28C180.988 252.28 181.424 252.384 181.776 252.592C182.128 252.792 182.392 253.044 182.568 253.348L182.736 252.388H184.116L182.952 259H181.572L181.752 258.016C181.464 258.328 181.1 258.588 180.66 258.796C180.228 259.004 179.756 259.108 179.244 259.108C178.748 259.108 178.304 258.996 177.912 258.772C177.528 258.548 177.224 258.232 177 257.824C176.784 257.408 176.676 256.932 176.676 256.396C176.676 256.156 176.7 255.912 176.748 255.664ZM182.16 255.688C182.192 255.536 182.208 255.372 182.208 255.196C182.208 254.66 182.048 254.24 181.728 253.936C181.416 253.624 181.024 253.468 180.552 253.468C180.2 253.468 179.856 253.556 179.52 253.732C179.184 253.9 178.892 254.152 178.644 254.488C178.396 254.816 178.232 255.208 178.152 255.664C178.12 255.816 178.104 255.98 178.104 256.156C178.104 256.7 178.26 257.132 178.572 257.452C178.892 257.764 179.288 257.92 179.76 257.92C180.112 257.92 180.456 257.832 180.792 257.656C181.128 257.48 181.42 257.224 181.668 256.888C181.916 256.544 182.08 256.144 182.16 255.688ZM187.077 253.552C187.349 253.152 187.669 252.84 188.037 252.616C188.413 252.392 188.829 252.28 189.285 252.28L189.033 253.696H188.685C188.157 253.696 187.733 253.828 187.413 254.092C187.093 254.356 186.869 254.812 186.741 255.46L186.117 259H184.749L185.913 252.388H187.281L187.077 253.552ZM191.682 253.552C191.954 253.152 192.274 252.84 192.642 252.616C193.018 252.392 193.434 252.28 193.89 252.28L193.638 253.696H193.29C192.762 253.696 192.338 253.828 192.018 254.092C191.698 254.356 191.474 254.812 191.346 255.46L190.722 259H189.354L190.518 252.388H191.886L191.682 253.552ZM197.992 252.28C198.816 252.28 199.472 252.512 199.96 252.976C200.456 253.44 200.704 254.064 200.704 254.848C200.704 255.032 200.684 255.252 200.644 255.508C200.612 255.684 200.556 255.9 200.476 256.156H195.424C195.416 256.212 195.412 256.296 195.412 256.408C195.412 256.88 195.556 257.256 195.844 257.536C196.14 257.816 196.524 257.956 196.996 257.956C197.74 257.956 198.312 257.648 198.712 257.032H200.188C199.884 257.64 199.436 258.14 198.844 258.532C198.252 258.916 197.568 259.108 196.792 259.108C196.24 259.108 195.756 259 195.34 258.784C194.924 258.568 194.6 258.26 194.368 257.86C194.136 257.452 194.02 256.976 194.02 256.432C194.02 256.2 194.044 255.952 194.092 255.688C194.212 255.008 194.456 254.412 194.824 253.9C195.192 253.38 195.648 252.98 196.192 252.7C196.744 252.42 197.344 252.28 197.992 252.28ZM199.276 255.172C199.292 255.028 199.3 254.924 199.3 254.86C199.3 254.42 199.152 254.072 198.856 253.816C198.568 253.56 198.192 253.432 197.728 253.432C197.24 253.432 196.8 253.588 196.408 253.9C196.016 254.212 195.748 254.636 195.604 255.172H199.276ZM203.286 257.164C203.27 257.276 203.262 257.348 203.262 257.38C203.262 257.548 203.314 257.672 203.418 257.752C203.522 257.824 203.694 257.86 203.934 257.86H204.774L204.57 259H203.49C202.962 259 202.558 258.896 202.278 258.688C201.998 258.472 201.858 258.132 201.858 257.668C201.858 257.492 201.874 257.324 201.906 257.164L202.554 253.504H201.774L201.966 252.388H202.758L203.046 250.744H204.426L204.138 252.388H205.734L205.542 253.504H203.934L203.286 257.164ZM208.723 259.108C208.163 259.108 207.671 258.992 207.247 258.76C206.823 258.528 206.491 258.2 206.251 257.776C206.019 257.352 205.903 256.868 205.903 256.324C205.903 255.58 206.075 254.9 206.419 254.284C206.771 253.668 207.251 253.18 207.859 252.82C208.475 252.46 209.159 252.28 209.911 252.28C210.471 252.28 210.967 252.4 211.399 252.64C211.831 252.872 212.167 253.2 212.407 253.624C212.655 254.04 212.779 254.524 212.779 255.076C212.779 255.82 212.599 256.5 212.239 257.116C211.879 257.732 211.391 258.22 210.775 258.58C210.159 258.932 209.475 259.108 208.723 259.108ZM208.891 257.956C209.347 257.956 209.763 257.828 210.139 257.572C210.523 257.308 210.823 256.964 211.039 256.54C211.255 256.108 211.363 255.648 211.363 255.16C211.363 254.608 211.207 254.184 210.895 253.888C210.583 253.584 210.191 253.432 209.719 253.432C209.255 253.432 208.839 253.564 208.471 253.828C208.111 254.084 207.827 254.432 207.619 254.872C207.419 255.304 207.319 255.768 207.319 256.264C207.319 256.8 207.463 257.216 207.751 257.512C208.047 257.808 208.427 257.956 208.891 257.956Z" fill="#ED3964"/>
</svg>
