<svg width="322" height="322" viewBox="0 0 322 322" fill="none" xmlns="http://www.w3.org/2000/svg">
<path d="M158.608 178.409L144.341 164.142L304.381 4.72192L318.028 18.3687L158.608 178.409Z" fill="#ED3964"/>
<path d="M321.75 107.073H300.659V22.0906H215.677V1H321.75V107.073V107.073ZM268.403 298.75H55.636C38.2672 298.75 24 284.483 24 267.114V54.3469C24 36.9782 38.2672 22.7109 55.636 22.7109H172.875V43.8015H55.636C50.0532 43.8015 45.0906 48.7641 45.0906 54.3469V267.114C45.0906 272.697 50.0532 277.659 55.636 277.659H268.403C273.986 277.659 278.948 272.697 278.948 267.114V149.875H300.039V267.114C300.659 284.483 286.392 298.75 268.403 298.75" fill="#ED3964"/>
<path d="M73.687 219.399H70.375V234.375H64.219V219.399H61.987V214.287H64.219V213.711C64.219 211.239 64.927 209.367 66.343 208.095C67.759 206.799 69.835 206.151 72.571 206.151C73.027 206.151 73.363 206.163 73.579 206.187V211.407C72.403 211.335 71.575 211.503 71.095 211.911C70.615 212.319 70.375 213.051 70.375 214.107V214.287H73.687V219.399ZM79.6757 212.199C78.5957 212.199 77.7077 211.887 77.0117 211.263C76.3397 210.615 76.0037 209.823 76.0037 208.887C76.0037 207.927 76.3397 207.135 77.0117 206.511C77.7077 205.863 78.5957 205.539 79.6757 205.539C80.7317 205.539 81.5957 205.863 82.2677 206.511C82.9637 207.135 83.3117 207.927 83.3117 208.887C83.3117 209.823 82.9637 210.615 82.2677 211.263C81.5957 211.887 80.7317 212.199 79.6757 212.199ZM82.7357 214.287V234.375H76.5797V214.287H82.7357ZM93.3528 217.635C94.0728 216.531 94.9728 215.667 96.0528 215.043C97.1328 214.395 98.3328 214.071 99.6528 214.071V220.587H97.9608C96.4248 220.587 95.2728 220.923 94.5048 221.595C93.7368 222.243 93.3528 223.395 93.3528 225.051V234.375H87.1968V214.287H93.3528V217.635ZM110.767 234.663C109.015 234.663 107.455 234.363 106.087 233.763C104.719 233.163 103.639 232.347 102.847 231.315C102.055 230.259 101.611 229.083 101.515 227.787H107.599C107.671 228.483 107.995 229.047 108.571 229.479C109.147 229.911 109.855 230.127 110.695 230.127C111.463 230.127 112.051 229.983 112.459 229.695C112.891 229.383 113.107 228.987 113.107 228.507C113.107 227.931 112.807 227.511 112.207 227.247C111.607 226.959 110.635 226.647 109.291 226.311C107.851 225.975 106.651 225.627 105.691 225.267C104.731 224.883 103.903 224.295 103.207 223.503C102.511 222.687 102.163 221.595 102.163 220.227C102.163 219.075 102.475 218.031 103.099 217.095C103.747 216.135 104.683 215.379 105.907 214.827C107.155 214.275 108.631 213.999 110.335 213.999C112.855 213.999 114.835 214.623 116.275 215.871C117.739 217.119 118.579 218.775 118.795 220.839H113.107C113.011 220.143 112.699 219.591 112.171 219.183C111.667 218.775 110.995 218.571 110.155 218.571C109.435 218.571 108.883 218.715 108.499 219.003C108.115 219.267 107.923 219.639 107.923 220.119C107.923 220.695 108.223 221.127 108.823 221.415C109.447 221.703 110.407 221.991 111.703 222.279C113.191 222.663 114.403 223.047 115.339 223.431C116.275 223.791 117.091 224.391 117.787 225.231C118.507 226.047 118.879 227.151 118.903 228.543C118.903 229.719 118.567 230.775 117.895 231.711C117.247 232.623 116.299 233.343 115.051 233.871C113.827 234.399 112.399 234.663 110.767 234.663ZM133.866 229.155V234.375H130.734C128.502 234.375 126.762 233.835 125.514 232.755C124.266 231.651 123.642 229.863 123.642 227.391V219.399H121.194V214.287H123.642V209.391H129.798V214.287H133.83V219.399H129.798V227.463C129.798 228.063 129.942 228.495 130.23 228.759C130.518 229.023 130.998 229.155 131.67 229.155H133.866ZM140.175 234.663C139.095 234.663 138.207 234.351 137.511 233.727C136.839 233.079 136.503 232.287 136.503 231.351C136.503 230.391 136.839 229.587 137.511 228.939C138.207 228.291 139.095 227.967 140.175 227.967C141.231 227.967 142.095 228.291 142.767 228.939C143.463 229.587 143.811 230.391 143.811 231.351C143.811 232.287 143.463 233.079 142.767 233.727C142.095 234.351 141.231 234.663 140.175 234.663Z" fill="#555555"/>
<path d="M173.087 214.071C175.583 214.071 177.563 214.827 179.027 216.339C180.515 217.851 181.259 219.951 181.259 222.639V234.375H175.139V223.467C175.139 222.171 174.791 221.175 174.095 220.479C173.423 219.759 172.487 219.399 171.287 219.399C170.087 219.399 169.139 219.759 168.443 220.479C167.771 221.175 167.435 222.171 167.435 223.467V234.375H161.315V223.467C161.315 222.171 160.967 221.175 160.271 220.479C159.599 219.759 158.663 219.399 157.463 219.399C156.263 219.399 155.315 219.759 154.619 220.479C153.947 221.175 153.611 222.171 153.611 223.467V234.375H147.455V214.287H153.611V216.807C154.235 215.967 155.051 215.307 156.059 214.827C157.067 214.323 158.207 214.071 159.479 214.071C160.991 214.071 162.335 214.395 163.511 215.043C164.711 215.691 165.647 216.615 166.319 217.815C167.015 216.711 167.963 215.811 169.163 215.115C170.363 214.419 171.671 214.071 173.087 214.071ZM194.708 234.663C192.74 234.663 190.964 234.243 189.38 233.403C187.82 232.563 186.584 231.363 185.672 229.803C184.784 228.243 184.34 226.419 184.34 224.331C184.34 222.267 184.796 220.455 185.708 218.895C186.62 217.311 187.868 216.099 189.452 215.259C191.036 214.419 192.812 213.999 194.78 213.999C196.748 213.999 198.524 214.419 200.108 215.259C201.692 216.099 202.94 217.311 203.852 218.895C204.764 220.455 205.22 222.267 205.22 224.331C205.22 226.395 204.752 228.219 203.816 229.803C202.904 231.363 201.644 232.563 200.036 233.403C198.452 234.243 196.676 234.663 194.708 234.663ZM194.708 229.335C195.884 229.335 196.88 228.903 197.696 228.039C198.536 227.175 198.956 225.939 198.956 224.331C198.956 222.723 198.548 221.487 197.732 220.623C196.94 219.759 195.956 219.327 194.78 219.327C193.58 219.327 192.584 219.759 191.792 220.623C191 221.463 190.604 222.699 190.604 224.331C190.604 225.939 190.988 227.175 191.756 228.039C192.548 228.903 193.532 229.335 194.708 229.335ZM207.262 224.295C207.262 222.231 207.646 220.419 208.414 218.859C209.206 217.299 210.274 216.099 211.618 215.259C212.962 214.419 214.462 213.999 216.118 213.999C217.438 213.999 218.638 214.275 219.718 214.827C220.822 215.379 221.686 216.123 222.31 217.059V207.735H228.466V234.375H222.31V231.495C221.734 232.455 220.906 233.223 219.826 233.799C218.77 234.375 217.534 234.663 216.118 234.663C214.462 234.663 212.962 234.243 211.618 233.403C210.274 232.539 209.206 231.327 208.414 229.767C207.646 228.183 207.262 226.359 207.262 224.295ZM222.31 224.331C222.31 222.795 221.878 221.583 221.014 220.695C220.174 219.807 219.142 219.363 217.918 219.363C216.694 219.363 215.65 219.807 214.786 220.695C213.946 221.559 213.526 222.759 213.526 224.295C213.526 225.831 213.946 227.055 214.786 227.967C215.65 228.855 216.694 229.299 217.918 229.299C219.142 229.299 220.174 228.855 221.014 227.967C221.878 227.079 222.31 225.867 222.31 224.331ZM231.696 224.295C231.696 222.231 232.08 220.419 232.848 218.859C233.64 217.299 234.708 216.099 236.052 215.259C237.396 214.419 238.896 213.999 240.552 213.999C241.968 213.999 243.204 214.287 244.26 214.863C245.34 215.439 246.168 216.195 246.744 217.131V214.287H252.9V234.375H246.744V231.531C246.144 232.467 245.304 233.223 244.224 233.799C243.168 234.375 241.932 234.663 240.516 234.663C238.884 234.663 237.396 234.243 236.052 233.403C234.708 232.539 233.64 231.327 232.848 229.767C232.08 228.183 231.696 226.359 231.696 224.295ZM246.744 224.331C246.744 222.795 246.312 221.583 245.448 220.695C244.608 219.807 243.576 219.363 242.352 219.363C241.128 219.363 240.084 219.807 239.22 220.695C238.38 221.559 237.96 222.759 237.96 224.295C237.96 225.831 238.38 227.055 239.22 227.967C240.084 228.855 241.128 229.299 242.352 229.299C243.576 229.299 244.608 228.855 245.448 227.967C246.312 227.079 246.744 225.867 246.744 224.331ZM263.509 207.735V234.375H257.353V207.735H263.509Z" fill="#ED3964"/>
<circle cx="74.875" cy="78.875" r="7.5" fill="#D25959"/>
<circle cx="100.875" cy="78.875" r="7.5" fill="#F0CA44"/>
<circle cx="126.875" cy="78.875" r="7.5" fill="#6ACE59"/>
</svg>
