<svg width="150" height="150" viewBox="0 0 150 150" fill="none" xmlns="http://www.w3.org/2000/svg">
<path d="M15 2H135C142.18 2 148 7.8203 148 15V135C148 142.18 142.18 148 135 148H15C7.8203 148 2 142.18 2 135V15C2 7.8203 7.8203 2 15 2Z" fill="#444444" stroke="#E5E5E5" stroke-width="4"/>
<path d="M44.576 63.728L43.04 72.416H54.32L53.408 77.6H42.128L40.544 86.672H53.264L52.304 92H32.816L38.768 58.448H58.208L57.296 63.728H44.576ZM71.1789 92.432C69.2269 92.432 67.4509 92.112 65.8509 91.472C64.2829 90.8 63.0349 89.888 62.1069 88.736C61.2109 87.552 60.7629 86.208 60.7629 84.704C60.7629 84.48 60.7949 84.112 60.8589 83.6H67.3869C67.2909 84.72 67.6269 85.632 68.3949 86.336C69.1629 87.008 70.2509 87.344 71.6589 87.344C72.9389 87.344 73.9949 87.12 74.8269 86.672C75.6909 86.192 76.1229 85.504 76.1229 84.608C76.1229 83.808 75.7229 83.168 74.9229 82.688C74.1549 82.208 72.9229 81.664 71.2269 81.056C69.5309 80.448 68.1229 79.856 67.0029 79.28C65.8829 78.704 64.9229 77.904 64.1229 76.88C63.3229 75.856 62.9229 74.56 62.9229 72.992C62.9229 71.424 63.3709 70.032 64.2669 68.816C65.1949 67.6 66.4749 66.656 68.1069 65.984C69.7389 65.312 71.6109 64.976 73.7229 64.976C75.7389 64.976 77.5149 65.312 79.0509 65.984C80.5869 66.656 81.7709 67.6 82.6029 68.816C83.4669 70 83.8989 71.36 83.8989 72.896C83.8989 73.28 83.8829 73.568 83.8509 73.76H77.6109C77.7069 72.64 77.3869 71.744 76.6509 71.072C75.9149 70.4 74.8429 70.064 73.4349 70.064C72.2829 70.064 71.3389 70.32 70.6029 70.832C69.8669 71.312 69.4989 71.968 69.4989 72.8C69.4989 73.632 69.9149 74.32 70.7469 74.864C71.5789 75.376 72.8589 75.952 74.5869 76.592C76.3149 77.264 77.6909 77.888 78.7149 78.464C79.7709 79.008 80.6829 79.776 81.4509 80.768C82.2189 81.728 82.6029 82.944 82.6029 84.416C82.6029 86.048 82.1069 87.472 81.1149 88.688C80.1229 89.904 78.7629 90.832 77.0349 91.472C75.3069 92.112 73.3549 92.432 71.1789 92.432ZM89.9911 78.704C90.4711 75.952 91.4471 73.552 92.9191 71.504C94.3911 69.424 96.2151 67.824 98.3911 66.704C100.599 65.552 102.983 64.976 105.543 64.976C108.839 64.976 111.415 65.792 113.271 67.424C115.159 69.056 116.215 71.376 116.439 74.384H109.191C108.999 73.232 108.503 72.336 107.703 71.696C106.903 71.024 105.831 70.688 104.487 70.688C102.567 70.688 100.919 71.392 99.5431 72.8C98.1991 74.176 97.3031 76.144 96.8551 78.704C96.6951 79.6 96.6151 80.368 96.6151 81.008C96.6151 82.832 97.0631 84.24 97.9591 85.232C98.8551 86.192 100.103 86.672 101.703 86.672C104.391 86.672 106.375 85.456 107.655 83.024H114.903C113.655 85.904 111.783 88.192 109.287 89.888C106.823 91.584 103.975 92.432 100.743 92.432C97.3831 92.432 94.6951 91.488 92.6791 89.6C90.6951 87.68 89.7031 85.088 89.7031 81.824C89.7031 80.832 89.7991 79.792 89.9911 78.704Z" fill="#E5E5E5"/>
</svg>
