<svg width="341" height="235" viewBox="0 0 341 235" fill="none" xmlns="http://www.w3.org/2000/svg">
<rect x="2.5" y="37.5" width="295" height="195" rx="17.5" stroke="#ED3964" stroke-width="5"/>
<path d="M61 5H321C329.284 5 336 11.7157 336 20V180C336 188.284 329.284 195 321 195H304V200H321C332.046 200 341 191.046 341 180V20C341 8.95431 332.046 0 321 0H61C49.9543 0 41 8.95431 41 20V31H46V20C46 11.7157 52.7157 5 61 5Z" fill="#ED3964"/>
<line x1="25" y1="97.5" x2="275" y2="97.5" stroke="#ED3964" stroke-width="5"/>
<circle cx="33.5" cy="66.5" r="7.5" fill="#D25959"/>
<circle cx="59.5" cy="66.5" r="7.5" fill="#F0CA44"/>
<circle cx="85.5" cy="66.5" r="7.5" fill="#6ACE59"/>
<path d="M61.628 151.196H58.136V167H53.024V151.196H50.756V147.056H53.024V146.048C53.024 143.6 53.72 141.8 55.112 140.648C56.504 139.496 58.604 138.956 61.412 139.028V143.276C60.188 143.252 59.336 143.456 58.856 143.888C58.376 144.32 58.136 145.1 58.136 146.228V147.056H61.628V151.196ZM67.4502 144.68C66.5622 144.68 65.8182 144.404 65.2182 143.852C64.6422 143.276 64.3542 142.568 64.3542 141.728C64.3542 140.888 64.6422 140.192 65.2182 139.64C65.8182 139.064 66.5622 138.776 67.4502 138.776C68.3382 138.776 69.0702 139.064 69.6462 139.64C70.2462 140.192 70.5462 140.888 70.5462 141.728C70.5462 142.568 70.2462 143.276 69.6462 143.852C69.0702 144.404 68.3382 144.68 67.4502 144.68ZM69.9342 147.056V167H64.8942V147.056H69.9342ZM79.9537 150.152C80.6017 149.096 81.4417 148.268 82.4737 147.668C83.5297 147.068 84.7297 146.768 86.0737 146.768V152.06H84.7417C83.1577 152.06 81.9577 152.432 81.1417 153.176C80.3497 153.92 79.9537 155.216 79.9537 157.064V167H74.9137V147.056H79.9537V150.152ZM97.1004 167.324C95.4684 167.324 94.0044 167.036 92.7084 166.46C91.4124 165.86 90.3804 165.056 89.6124 164.048C88.8684 163.04 88.4604 161.924 88.3884 160.7H93.4644C93.5604 161.468 93.9324 162.104 94.5804 162.608C95.2524 163.112 96.0804 163.364 97.0644 163.364C98.0244 163.364 98.7684 163.172 99.2964 162.788C99.8484 162.404 100.124 161.912 100.124 161.312C100.124 160.664 99.7884 160.184 99.1164 159.872C98.4684 159.536 97.4244 159.176 95.9844 158.792C94.4964 158.432 93.2724 158.06 92.3124 157.676C91.3764 157.292 90.5604 156.704 89.8644 155.912C89.1924 155.12 88.8564 154.052 88.8564 152.708C88.8564 151.604 89.1684 150.596 89.7924 149.684C90.4404 148.772 91.3524 148.052 92.5284 147.524C93.7284 146.996 95.1324 146.732 96.7404 146.732C99.1164 146.732 101.012 147.332 102.428 148.532C103.844 149.708 104.624 151.304 104.768 153.32H99.9444C99.8724 152.528 99.5364 151.904 98.9364 151.448C98.3604 150.968 97.5804 150.728 96.5964 150.728C95.6844 150.728 94.9764 150.896 94.4724 151.232C93.9924 151.568 93.7524 152.036 93.7524 152.636C93.7524 153.308 94.0884 153.824 94.7604 154.184C95.4324 154.52 96.4764 154.868 97.8924 155.228C99.3324 155.588 100.52 155.96 101.456 156.344C102.392 156.728 103.196 157.328 103.868 158.144C104.564 158.936 104.924 159.992 104.948 161.312C104.948 162.464 104.624 163.496 103.976 164.408C103.352 165.32 102.44 166.04 101.24 166.568C100.064 167.072 98.6844 167.324 97.1004 167.324ZM114.954 151.196V160.844C114.954 161.516 115.11 162.008 115.422 162.32C115.758 162.608 116.31 162.752 117.078 162.752H119.418V167H116.25C112.002 167 109.878 164.936 109.878 160.808V151.196H107.502V147.056H109.878V142.124H114.954V147.056H119.418V151.196H114.954ZM125.275 167.252C124.363 167.252 123.607 166.976 123.007 166.424C122.431 165.848 122.143 165.14 122.143 164.3C122.143 163.46 122.431 162.764 123.007 162.212C123.607 161.636 124.363 161.348 125.275 161.348C126.163 161.348 126.895 161.636 127.471 162.212C128.047 162.764 128.335 163.46 128.335 164.3C128.335 165.14 128.047 165.848 127.471 166.424C126.895 166.976 126.163 167.252 125.275 167.252Z" fill="#555555"/>
<path d="M157.162 146.768C159.61 146.768 161.578 147.524 163.066 149.036C164.578 150.524 165.334 152.612 165.334 155.3V167H160.294V155.984C160.294 154.424 159.898 153.236 159.106 152.42C158.314 151.58 157.234 151.16 155.866 151.16C154.498 151.16 153.406 151.58 152.59 152.42C151.798 153.236 151.402 154.424 151.402 155.984V167H146.362V155.984C146.362 154.424 145.966 153.236 145.174 152.42C144.382 151.58 143.302 151.16 141.934 151.16C140.542 151.16 139.438 151.58 138.622 152.42C137.83 153.236 137.434 154.424 137.434 155.984V167H132.394V147.056H137.434V149.468C138.082 148.628 138.91 147.968 139.918 147.488C140.95 147.008 142.078 146.768 143.302 146.768C144.862 146.768 146.254 147.104 147.478 147.776C148.702 148.424 149.65 149.36 150.322 150.584C150.97 149.432 151.906 148.508 153.13 147.812C154.378 147.116 155.722 146.768 157.162 146.768ZM178.973 167.324C177.053 167.324 175.325 166.904 173.789 166.064C172.253 165.2 171.041 163.988 170.153 162.428C169.289 160.868 168.857 159.068 168.857 157.028C168.857 154.988 169.301 153.188 170.189 151.628C171.101 150.068 172.337 148.868 173.897 148.028C175.457 147.164 177.197 146.732 179.117 146.732C181.037 146.732 182.777 147.164 184.337 148.028C185.897 148.868 187.121 150.068 188.009 151.628C188.921 153.188 189.377 154.988 189.377 157.028C189.377 159.068 188.909 160.868 187.973 162.428C187.061 163.988 185.813 165.2 184.229 166.064C182.669 166.904 180.917 167.324 178.973 167.324ZM178.973 162.932C179.885 162.932 180.737 162.716 181.529 162.284C182.345 161.828 182.993 161.156 183.473 160.268C183.953 159.38 184.193 158.3 184.193 157.028C184.193 155.132 183.689 153.68 182.681 152.672C181.697 151.64 180.485 151.124 179.045 151.124C177.605 151.124 176.393 151.64 175.409 152.672C174.449 153.68 173.969 155.132 173.969 157.028C173.969 158.924 174.437 160.388 175.373 161.42C176.333 162.428 177.533 162.932 178.973 162.932ZM191.778 156.956C191.778 154.94 192.174 153.152 192.966 151.592C193.782 150.032 194.886 148.832 196.278 147.992C197.67 147.152 199.218 146.732 200.922 146.732C202.218 146.732 203.454 147.02 204.63 147.596C205.806 148.148 206.742 148.892 207.438 149.828V140.36H212.55V167H207.438V164.048C206.814 165.032 205.938 165.824 204.81 166.424C203.682 167.024 202.374 167.324 200.886 167.324C199.206 167.324 197.67 166.892 196.278 166.028C194.886 165.164 193.782 163.952 192.966 162.392C192.174 160.808 191.778 158.996 191.778 156.956ZM207.474 157.028C207.474 155.804 207.234 154.76 206.754 153.896C206.274 153.008 205.626 152.336 204.81 151.88C203.994 151.4 203.118 151.16 202.182 151.16C201.246 151.16 200.382 151.388 199.59 151.844C198.798 152.3 198.15 152.972 197.646 153.86C197.166 154.724 196.926 155.756 196.926 156.956C196.926 158.156 197.166 159.212 197.646 160.124C198.15 161.012 198.798 161.696 199.59 162.176C200.406 162.656 201.27 162.896 202.182 162.896C203.118 162.896 203.994 162.668 204.81 162.212C205.626 161.732 206.274 161.06 206.754 160.196C207.234 159.308 207.474 158.252 207.474 157.028ZM216.176 156.956C216.176 154.94 216.572 153.152 217.364 151.592C218.18 150.032 219.272 148.832 220.64 147.992C222.032 147.152 223.58 146.732 225.284 146.732C226.772 146.732 228.068 147.032 229.172 147.632C230.3 148.232 231.2 148.988 231.872 149.9V147.056H236.948V167H231.872V164.084C231.224 165.02 230.324 165.8 229.172 166.424C228.044 167.024 226.736 167.324 225.248 167.324C223.568 167.324 222.032 166.892 220.64 166.028C219.272 165.164 218.18 163.952 217.364 162.392C216.572 160.808 216.176 158.996 216.176 156.956ZM231.872 157.028C231.872 155.804 231.632 154.76 231.152 153.896C230.672 153.008 230.024 152.336 229.208 151.88C228.392 151.4 227.516 151.16 226.58 151.16C225.644 151.16 224.78 151.388 223.988 151.844C223.196 152.3 222.548 152.972 222.044 153.86C221.564 154.724 221.324 155.756 221.324 156.956C221.324 158.156 221.564 159.212 222.044 160.124C222.548 161.012 223.196 161.696 223.988 162.176C224.804 162.656 225.668 162.896 226.58 162.896C227.516 162.896 228.392 162.668 229.208 162.212C230.024 161.732 230.672 161.06 231.152 160.196C231.632 159.308 231.872 158.252 231.872 157.028ZM246.911 140.36V167H241.871V140.36H246.911Z" fill="#ED3964"/>
</svg>
