<svg width="341" height="235" viewBox="0 0 341 235" fill="none" xmlns="http://www.w3.org/2000/svg">
<rect x="2.5" y="37.5" width="295" height="195" rx="17.5" stroke="#444444" stroke-width="5"/>
<path d="M61 5H321C329.284 5 336 11.7157 336 20V180C336 188.284 329.284 195 321 195H304V200H321C332.046 200 341 191.046 341 180V20C341 8.95431 332.046 0 321 0H61C49.9543 0 41 8.95431 41 20V31H46V20C46 11.7157 52.7157 5 61 5Z" fill="#444444"/>
<line x1="25" y1="97.5" x2="275" y2="97.5" stroke="#444444" stroke-width="5"/>
<circle cx="33.5" cy="66.5" r="7.5" fill="#D25959"/>
<circle cx="59.5" cy="66.5" r="7.5" fill="#F0CA44"/>
<circle cx="85.5" cy="66.5" r="7.5" fill="#6ACE59"/>
<path d="M61.628 151.196H58.136V167H53.024V151.196H50.756V147.056H53.024V146.048C53.024 143.6 53.72 141.8 55.112 140.648C56.504 139.496 58.604 138.956 61.412 139.028V143.276C60.188 143.252 59.336 143.456 58.856 143.888C58.376 144.32 58.136 145.1 58.136 146.228V147.056H61.628V151.196ZM67.4502 144.68C66.5622 144.68 65.8182 144.404 65.2182 143.852C64.6422 143.276 64.3542 142.568 64.3542 141.728C64.3542 140.888 64.6422 140.192 65.2182 139.64C65.8182 139.064 66.5622 138.776 67.4502 138.776C68.3382 138.776 69.0702 139.064 69.6462 139.64C70.2462 140.192 70.5462 140.888 70.5462 141.728C70.5462 142.568 70.2462 143.276 69.6462 143.852C69.0702 144.404 68.3382 144.68 67.4502 144.68ZM69.9342 147.056V167H64.8942V147.056H69.9342ZM79.9537 150.152C80.6017 149.096 81.4417 148.268 82.4737 147.668C83.5297 147.068 84.7297 146.768 86.0737 146.768V152.06H84.7417C83.1577 152.06 81.9577 152.432 81.1417 153.176C80.3497 153.92 79.9537 155.216 79.9537 157.064V167H74.9137V147.056H79.9537V150.152ZM97.1004 167.324C95.4684 167.324 94.0044 167.036 92.7084 166.46C91.4124 165.86 90.3804 165.056 89.6124 164.048C88.8684 163.04 88.4604 161.924 88.3884 160.7H93.4644C93.5604 161.468 93.9324 162.104 94.5804 162.608C95.2524 163.112 96.0804 163.364 97.0644 163.364C98.0244 163.364 98.7684 163.172 99.2964 162.788C99.8484 162.404 100.124 161.912 100.124 161.312C100.124 160.664 99.7884 160.184 99.1164 159.872C98.4684 159.536 97.4244 159.176 95.9844 158.792C94.4964 158.432 93.2724 158.06 92.3124 157.676C91.3764 157.292 90.5604 156.704 89.8644 155.912C89.1924 155.12 88.8564 154.052 88.8564 152.708C88.8564 151.604 89.1684 150.596 89.7924 149.684C90.4404 148.772 91.3524 148.052 92.5284 147.524C93.7284 146.996 95.1324 146.732 96.7404 146.732C99.1164 146.732 101.012 147.332 102.428 148.532C103.844 149.708 104.624 151.304 104.768 153.32H99.9444C99.8724 152.528 99.5364 151.904 98.9364 151.448C98.3604 150.968 97.5804 150.728 96.5964 150.728C95.6844 150.728 94.9764 150.896 94.4724 151.232C93.9924 151.568 93.7524 152.036 93.7524 152.636C93.7524 153.308 94.0884 153.824 94.7604 154.184C95.4324 154.52 96.4764 154.868 97.8924 155.228C99.3324 155.588 100.52 155.96 101.456 156.344C102.392 156.728 103.196 157.328 103.868 158.144C104.564 158.936 104.924 159.992 104.948 161.312C104.948 162.464 104.624 163.496 103.976 164.408C103.352 165.32 102.44 166.04 101.24 166.568C100.064 167.072 98.6844 167.324 97.1004 167.324ZM114.954 151.196V160.844C114.954 161.516 115.11 162.008 115.422 162.32C115.758 162.608 116.31 162.752 117.078 162.752H119.418V167H116.25C112.002 167 109.878 164.936 109.878 160.808V151.196H107.502V147.056H109.878V142.124H114.954V147.056H119.418V151.196H114.954ZM125.275 167.252C124.363 167.252 123.607 166.976 123.007 166.424C122.431 165.848 122.143 165.14 122.143 164.3C122.143 163.46 122.431 162.764 123.007 162.212C123.607 161.636 124.363 161.348 125.275 161.348C126.163 161.348 126.895 161.636 127.471 162.212C128.047 162.764 128.335 163.46 128.335 164.3C128.335 165.14 128.047 165.848 127.471 166.424C126.895 166.976 126.163 167.252 125.275 167.252Z" fill="#777777"/>
<path d="M157.162 146.768C159.61 146.768 161.578 147.524 163.066 149.036C164.578 150.524 165.334 152.612 165.334 155.3V167H160.294V155.984C160.294 154.424 159.898 153.236 159.106 152.42C158.314 151.58 157.234 151.16 155.866 151.16C154.498 151.16 153.406 151.58 152.59 152.42C151.798 153.236 151.402 154.424 151.402 155.984V167H146.362V155.984C146.362 154.424 145.966 153.236 145.174 152.42C144.382 151.58 143.302 151.16 141.934 151.16C140.542 151.16 139.438 151.58 138.622 152.42C137.83 153.236 137.434 154.424 137.434 155.984V167H132.394V147.056H137.434V149.468C138.082 148.628 138.91 147.968 139.918 147.488C140.95 147.008 142.078 146.768 143.302 146.768C144.862 146.768 146.254 147.104 147.478 147.776C148.702 148.424 149.65 149.36 150.322 150.584C150.97 149.432 151.906 148.508 153.13 147.812C154.378 147.116 155.722 146.768 157.162 146.768ZM178.973 167.324C177.053 167.324 175.325 166.904 173.789 166.064C172.253 165.2 171.041 163.988 170.153 162.428C169.289 160.868 168.857 159.068 168.857 157.028C168.857 154.988 169.301 153.188 170.189 151.628C171.101 150.068 172.337 148.868 173.897 148.028C175.457 147.164 177.197 146.732 179.117 146.732C181.037 146.732 182.777 147.164 184.337 148.028C185.897 148.868 187.121 150.068 188.009 151.628C188.921 153.188 189.377 154.988 189.377 157.028C189.377 159.068 188.909 160.868 187.973 162.428C187.061 163.988 185.813 165.2 184.229 166.064C182.669 166.904 180.917 167.324 178.973 167.324ZM178.973 162.932C179.885 162.932 180.737 162.716 181.529 162.284C182.345 161.828 182.993 161.156 183.473 160.268C183.953 159.38 184.193 158.3 184.193 157.028C184.193 155.132 183.689 153.68 182.681 152.672C181.697 151.64 180.485 151.124 179.045 151.124C177.605 151.124 176.393 151.64 175.409 152.672C174.449 153.68 173.969 155.132 173.969 157.028C173.969 158.924 174.437 160.388 175.373 161.42C176.333 162.428 177.533 162.932 178.973 162.932ZM191.778 156.956C191.778 154.94 192.174 153.152 192.966 151.592C193.782 150.032 194.886 148.832 196.278 147.992C197.67 147.152 199.218 146.732 200.922 146.732C202.218 146.732 203.454 147.02 204.63 147.596C205.806 148.148 206.742 148.892 207.438 149.828V140.36H212.55V167H207.438V164.048C206.814 165.032 205.938 165.824 204.81 166.424C203.682 167.024 202.374 167.324 200.886 167.324C199.206 167.324 197.67 166.892 196.278 166.028C194.886 165.164 193.782 163.952 192.966 162.392C192.174 160.808 191.778 158.996 191.778 156.956ZM207.474 157.028C207.474 155.804 207.234 154.76 206.754 153.896C206.274 153.008 205.626 152.336 204.81 151.88C203.994 151.4 203.118 151.16 202.182 151.16C201.246 151.16 200.382 151.388 199.59 151.844C198.798 152.3 198.15 152.972 197.646 153.86C197.166 154.724 196.926 155.756 196.926 156.956C196.926 158.156 197.166 159.212 197.646 160.124C198.15 161.012 198.798 161.696 199.59 162.176C200.406 162.656 201.27 162.896 202.182 162.896C203.118 162.896 203.994 162.668 204.81 162.212C205.626 161.732 206.274 161.06 206.754 160.196C207.234 159.308 207.474 158.252 207.474 157.028ZM216.176 156.956C216.176 154.94 216.572 153.152 217.364 151.592C218.18 150.032 219.272 148.832 220.64 147.992C222.032 147.152 223.58 146.732 225.284 146.732C226.772 146.732 228.068 147.032 229.172 147.632C230.3 148.232 231.2 148.988 231.872 149.9V147.056H236.948V167H231.872V164.084C231.224 165.02 230.324 165.8 229.172 166.424C228.044 167.024 226.736 167.324 225.248 167.324C223.568 167.324 222.032 166.892 220.64 166.028C219.272 165.164 218.18 163.952 217.364 162.392C216.572 160.808 216.176 158.996 216.176 156.956ZM231.872 157.028C231.872 155.804 231.632 154.76 231.152 153.896C230.672 153.008 230.024 152.336 229.208 151.88C228.392 151.4 227.516 151.16 226.58 151.16C225.644 151.16 224.78 151.388 223.988 151.844C223.196 152.3 222.548 152.972 222.044 153.86C221.564 154.724 221.324 155.756 221.324 156.956C221.324 158.156 221.564 159.212 222.044 160.124C222.548 161.012 223.196 161.696 223.988 162.176C224.804 162.656 225.668 162.896 226.58 162.896C227.516 162.896 228.392 162.668 229.208 162.212C230.024 161.732 230.672 161.06 231.152 160.196C231.632 159.308 231.872 158.252 231.872 157.028ZM246.911 140.36V167H241.871V140.36H246.911Z" fill="#444444"/>
<path d="M90.744 198.756C91.0893 198.299 91.5373 197.925 92.088 197.636C92.6387 197.347 93.236 197.202 93.88 197.202C94.7947 197.202 95.5273 197.477 96.078 198.028C96.638 198.579 96.918 199.325 96.918 200.268C96.918 200.539 96.89 200.828 96.834 201.136C96.694 201.911 96.4093 202.601 95.98 203.208C95.56 203.815 95.042 204.286 94.426 204.622C93.8193 204.958 93.1753 205.126 92.494 205.126C91.8313 205.126 91.276 204.981 90.828 204.692C90.38 204.403 90.0673 204.034 89.89 203.586L89.638 205H88.364L90.198 194.64H91.472L90.744 198.756ZM95.532 201.136C95.5693 200.94 95.588 200.725 95.588 200.492C95.588 199.811 95.3873 199.279 94.986 198.896C94.5847 198.504 94.0667 198.308 93.432 198.308C92.9653 198.308 92.5127 198.425 92.074 198.658C91.6353 198.882 91.2573 199.213 90.94 199.652C90.632 200.081 90.4267 200.581 90.324 201.15C90.2867 201.346 90.268 201.561 90.268 201.794C90.268 202.475 90.4687 203.017 90.87 203.418C91.2807 203.81 91.7987 204.006 92.424 204.006C92.9 204.006 93.3527 203.894 93.782 203.67C94.2207 203.437 94.594 203.105 94.902 202.676C95.2193 202.237 95.4293 201.724 95.532 201.136ZM99.6869 197.328L100.989 203.516L104.475 197.328H105.791L99.1829 208.612H97.8529L100.023 204.916L98.2729 197.328H99.6869Z" fill="#444444"/>
<path d="M114.322 205.098C113.5 205.098 112.777 204.925 112.152 204.58C111.526 204.235 111.041 203.749 110.696 203.124C110.35 202.499 110.178 201.789 110.178 200.996C110.178 199.885 110.425 198.887 110.92 198C111.424 197.104 112.114 196.404 112.992 195.9C113.878 195.396 114.868 195.144 115.96 195.144C116.79 195.144 117.518 195.317 118.144 195.662C118.769 196.007 119.254 196.493 119.6 197.118C119.945 197.734 120.118 198.439 120.118 199.232C120.118 200.343 119.866 201.346 119.362 202.242C118.867 203.138 118.176 203.838 117.29 204.342C116.412 204.846 115.423 205.098 114.322 205.098ZM114.546 203.656C115.311 203.656 115.988 203.46 116.576 203.068C117.173 202.676 117.635 202.153 117.962 201.5C118.298 200.837 118.466 200.119 118.466 199.344C118.466 198.495 118.223 197.827 117.738 197.342C117.262 196.847 116.594 196.6 115.736 196.6C114.97 196.6 114.289 196.796 113.692 197.188C113.104 197.571 112.646 198.089 112.32 198.742C111.993 199.395 111.83 200.114 111.83 200.898C111.83 201.747 112.068 202.419 112.544 202.914C113.029 203.409 113.696 203.656 114.546 203.656ZM123.06 202.858C123.041 202.989 123.032 203.073 123.032 203.11C123.032 203.306 123.093 203.451 123.214 203.544C123.335 203.628 123.536 203.67 123.816 203.67H124.796L124.558 205H123.298C122.682 205 122.211 204.879 121.884 204.636C121.557 204.384 121.394 203.987 121.394 203.446C121.394 203.241 121.413 203.045 121.45 202.858L122.206 198.588H121.296L121.52 197.286H122.444L122.78 195.368H124.39L124.054 197.286H125.916L125.692 198.588H123.816L123.06 202.858ZM126.183 201.108C126.323 200.333 126.603 199.647 127.023 199.05C127.452 198.453 127.975 197.991 128.591 197.664C129.207 197.328 129.851 197.16 130.523 197.16C131.13 197.16 131.638 197.281 132.049 197.524C132.46 197.757 132.768 198.051 132.973 198.406L133.169 197.286H134.779L133.421 205H131.811L132.021 203.852C131.685 204.216 131.26 204.519 130.747 204.762C130.243 205.005 129.692 205.126 129.095 205.126C128.516 205.126 127.998 204.995 127.541 204.734C127.093 204.473 126.738 204.104 126.477 203.628C126.225 203.143 126.099 202.587 126.099 201.962C126.099 201.682 126.127 201.397 126.183 201.108ZM132.497 201.136C132.534 200.959 132.553 200.767 132.553 200.562C132.553 199.937 132.366 199.447 131.993 199.092C131.629 198.728 131.172 198.546 130.621 198.546C130.21 198.546 129.809 198.649 129.417 198.854C129.025 199.05 128.684 199.344 128.395 199.736C128.106 200.119 127.914 200.576 127.821 201.108C127.784 201.285 127.765 201.477 127.765 201.682C127.765 202.317 127.947 202.821 128.311 203.194C128.684 203.558 129.146 203.74 129.697 203.74C130.108 203.74 130.509 203.637 130.901 203.432C131.293 203.227 131.634 202.928 131.923 202.536C132.212 202.135 132.404 201.668 132.497 201.136ZM132.903 195.214L129.529 196.74L129.739 195.564L133.141 193.856L132.903 195.214ZM138.751 203.572L142.041 197.286H143.763L139.465 205H137.533L135.965 197.286H137.673L138.751 203.572ZM145.936 196.264C145.684 196.264 145.478 196.185 145.32 196.026C145.161 195.867 145.082 195.667 145.082 195.424C145.082 195.097 145.203 194.817 145.446 194.584C145.698 194.341 145.982 194.22 146.3 194.22C146.552 194.22 146.752 194.299 146.902 194.458C147.06 194.617 147.14 194.817 147.14 195.06C147.14 195.387 147.018 195.671 146.776 195.914C146.533 196.147 146.253 196.264 145.936 196.264ZM146.538 197.286L145.18 205H143.584L144.942 197.286H146.538ZM150.649 205.126C149.996 205.126 149.422 204.991 148.927 204.72C148.432 204.449 148.045 204.067 147.765 203.572C147.494 203.077 147.359 202.513 147.359 201.878C147.359 201.01 147.56 200.217 147.961 199.498C148.372 198.779 148.932 198.21 149.641 197.79C150.36 197.37 151.158 197.16 152.035 197.16C152.688 197.16 153.267 197.3 153.771 197.58C154.275 197.851 154.667 198.233 154.947 198.728C155.236 199.213 155.381 199.778 155.381 200.422C155.381 201.29 155.171 202.083 154.751 202.802C154.331 203.521 153.762 204.09 153.043 204.51C152.324 204.921 151.526 205.126 150.649 205.126ZM150.845 203.782C151.377 203.782 151.862 203.633 152.301 203.334C152.749 203.026 153.099 202.625 153.351 202.13C153.603 201.626 153.729 201.089 153.729 200.52C153.729 199.876 153.547 199.381 153.183 199.036C152.819 198.681 152.362 198.504 151.811 198.504C151.27 198.504 150.784 198.658 150.355 198.966C149.935 199.265 149.604 199.671 149.361 200.184C149.128 200.688 149.011 201.229 149.011 201.808C149.011 202.433 149.179 202.919 149.515 203.264C149.86 203.609 150.304 203.782 150.845 203.782ZM168.534 197.776C168.441 198.336 168.212 198.803 167.848 199.176C167.484 199.549 167.036 199.825 166.504 200.002C166.933 200.077 167.288 200.296 167.568 200.66C167.848 201.024 167.988 201.453 167.988 201.948C167.988 202.097 167.974 202.242 167.946 202.382C167.862 202.877 167.657 203.325 167.33 203.726C167.003 204.118 166.574 204.431 166.042 204.664C165.519 204.888 164.936 205 164.292 205H160.4L162.122 195.27H165.832C166.719 195.27 167.395 195.461 167.862 195.844C168.338 196.227 168.576 196.721 168.576 197.328C168.576 197.468 168.562 197.617 168.534 197.776ZM166.882 197.972C166.901 197.841 166.91 197.743 166.91 197.678C166.91 197.314 166.784 197.029 166.532 196.824C166.28 196.619 165.925 196.516 165.468 196.516H163.494L162.99 199.4H164.964C165.487 199.4 165.916 199.274 166.252 199.022C166.597 198.77 166.807 198.42 166.882 197.972ZM166.378 202.214C166.397 202.065 166.406 201.957 166.406 201.892C166.406 201.509 166.266 201.206 165.986 200.982C165.706 200.758 165.333 200.646 164.866 200.646H162.766L162.22 203.754H164.376C164.917 203.754 165.365 203.619 165.72 203.348C166.075 203.077 166.294 202.699 166.378 202.214ZM169.372 201.108C169.512 200.333 169.792 199.647 170.212 199.05C170.642 198.453 171.164 197.991 171.78 197.664C172.396 197.328 173.04 197.16 173.712 197.16C174.319 197.16 174.828 197.281 175.238 197.524C175.649 197.757 175.957 198.051 176.162 198.406L176.358 197.286H177.968L176.61 205H175L175.21 203.852C174.874 204.216 174.45 204.519 173.936 204.762C173.432 205.005 172.882 205.126 172.284 205.126C171.706 205.126 171.188 204.995 170.73 204.734C170.282 204.473 169.928 204.104 169.666 203.628C169.414 203.143 169.288 202.587 169.288 201.962C169.288 201.682 169.316 201.397 169.372 201.108ZM175.686 201.136C175.724 200.959 175.742 200.767 175.742 200.562C175.742 199.937 175.556 199.447 175.182 199.092C174.818 198.728 174.361 198.546 173.81 198.546C173.4 198.546 172.998 198.649 172.606 198.854C172.214 199.05 171.874 199.344 171.584 199.736C171.295 200.119 171.104 200.576 171.01 201.108C170.973 201.285 170.954 201.477 170.954 201.682C170.954 202.317 171.136 202.821 171.5 203.194C171.874 203.558 172.336 203.74 172.886 203.74C173.297 203.74 173.698 203.637 174.09 203.432C174.482 203.227 174.823 202.928 175.112 202.536C175.402 202.135 175.593 201.668 175.686 201.136ZM181.423 198.644C181.74 198.177 182.113 197.813 182.543 197.552C182.981 197.291 183.467 197.16 183.999 197.16L183.705 198.812H183.299C182.683 198.812 182.188 198.966 181.815 199.274C181.441 199.582 181.18 200.114 181.031 200.87L180.303 205H178.707L180.065 197.286H181.661L181.423 198.644ZM186.796 198.644C187.113 198.177 187.486 197.813 187.916 197.552C188.354 197.291 188.84 197.16 189.372 197.16L189.078 198.812H188.672C188.056 198.812 187.561 198.966 187.188 199.274C186.814 199.582 186.553 200.114 186.404 200.87L185.676 205H184.08L185.438 197.286H187.034L186.796 198.644ZM194.157 197.16C195.118 197.16 195.884 197.431 196.453 197.972C197.032 198.513 197.321 199.241 197.321 200.156C197.321 200.371 197.298 200.627 197.251 200.926C197.214 201.131 197.148 201.383 197.055 201.682H191.161C191.152 201.747 191.147 201.845 191.147 201.976C191.147 202.527 191.315 202.965 191.651 203.292C191.996 203.619 192.444 203.782 192.995 203.782C193.863 203.782 194.53 203.423 194.997 202.704H196.719C196.364 203.413 195.842 203.997 195.151 204.454C194.46 204.902 193.662 205.126 192.757 205.126C192.113 205.126 191.548 205 191.063 204.748C190.578 204.496 190.2 204.137 189.929 203.67C189.658 203.194 189.523 202.639 189.523 202.004C189.523 201.733 189.551 201.444 189.607 201.136C189.747 200.343 190.032 199.647 190.461 199.05C190.89 198.443 191.422 197.977 192.057 197.65C192.701 197.323 193.401 197.16 194.157 197.16ZM195.655 200.534C195.674 200.366 195.683 200.245 195.683 200.17C195.683 199.657 195.51 199.251 195.165 198.952C194.829 198.653 194.39 198.504 193.849 198.504C193.28 198.504 192.766 198.686 192.309 199.05C191.852 199.414 191.539 199.909 191.371 200.534H195.655ZM200.333 202.858C200.315 202.989 200.305 203.073 200.305 203.11C200.305 203.306 200.366 203.451 200.487 203.544C200.609 203.628 200.809 203.67 201.089 203.67H202.069L201.831 205H200.571C199.955 205 199.484 204.879 199.157 204.636C198.831 204.384 198.667 203.987 198.667 203.446C198.667 203.241 198.686 203.045 198.723 202.858L199.479 198.588H198.569L198.793 197.286H199.717L200.053 195.368H201.663L201.327 197.286H203.189L202.965 198.588H201.089L200.333 202.858ZM206.676 205.126C206.023 205.126 205.449 204.991 204.954 204.72C204.46 204.449 204.072 204.067 203.792 203.572C203.522 203.077 203.386 202.513 203.386 201.878C203.386 201.01 203.587 200.217 203.988 199.498C204.399 198.779 204.959 198.21 205.668 197.79C206.387 197.37 207.185 197.16 208.062 197.16C208.716 197.16 209.294 197.3 209.798 197.58C210.302 197.851 210.694 198.233 210.974 198.728C211.264 199.213 211.408 199.778 211.408 200.422C211.408 201.29 211.198 202.083 210.778 202.802C210.358 203.521 209.789 204.09 209.07 204.51C208.352 204.921 207.554 205.126 206.676 205.126ZM206.872 203.782C207.404 203.782 207.89 203.633 208.328 203.334C208.776 203.026 209.126 202.625 209.378 202.13C209.63 201.626 209.756 201.089 209.756 200.52C209.756 199.876 209.574 199.381 209.21 199.036C208.846 198.681 208.389 198.504 207.838 198.504C207.297 198.504 206.812 198.658 206.382 198.966C205.962 199.265 205.631 199.671 205.388 200.184C205.155 200.688 205.038 201.229 205.038 201.808C205.038 202.433 205.206 202.919 205.542 203.264C205.888 203.609 206.331 203.782 206.872 203.782Z" fill="#ED3964"/>
</svg>
